<?xml version="1.0" encoding="UTF-8" standalone="no"?>
<!DOCTYPE svg PUBLIC "-//W3C//DTD SVG 1.1//EN" "http://www.w3.org/Graphics/SVG/1.1/DTD/svg11.dtd">
<svg width="100%" height="100%" viewBox="0 0 4096 4096" version="1.1" xmlns="http://www.w3.org/2000/svg" xmlns:xlink="http://www.w3.org/1999/xlink" xml:space="preserve" xmlns:serif="http://www.serif.com/" style="fill-rule:evenodd;clip-rule:evenodd;stroke-linecap:round;stroke-linejoin:round;stroke-miterlimit:1.5;">
    <g transform="matrix(1.84883,0,0,1.4459,-921.526,-636.878)">
        <path d="M2713.9,938.431C2713.9,663.416 2539.54,440.472 2324.46,440.472L887.875,440.472C672.795,440.472 498.439,663.416 498.439,938.431L498.439,2775.35C498.439,3050.36 672.795,3273.31 887.875,3273.31L2324.46,3273.31C2539.54,3273.31 2713.9,3050.36 2713.9,2775.35L2713.9,938.431Z" style="fill:rgb(33,150,243);"/>
    </g>
    <g transform="matrix(0.616399,-0.616399,1.12573,1.12573,-1924.42,1809.85)">
        <path d="M3931.47,1512.67L1237.6,1512.67L643.376,1838.04L643.376,1838.04L1237.6,2163.41L3931.47,2163.41L3931.47,1512.67Z" style="fill:rgb(254,254,254);stroke:rgb(254,255,254);stroke-width:311.66px;"/>
    </g>
    <g transform="matrix(-0.650307,-0.650307,0.293735,-0.293735,4711.93,3092.92)">
        <rect x="2350.96" y="510.626" width="1126.49" height="948.621" style="fill:rgb(254,254,254);stroke:rgb(254,255,254);stroke-width:560.56px;"/>
    </g>
</svg>
